<?xml version="1.0" standalone="no"?>
<!DOCTYPE svg PUBLIC "-//W3C//DTD SVG 20010904//EN"
 "http://www.w3.org/TR/2001/REC-SVG-20010904/DTD/svg10.dtd">
<svg version="1.0" xmlns="http://www.w3.org/2000/svg"
 width="500.000000pt" height="500.000000pt" viewBox="0 0 500.000000 500.000000"
 preserveAspectRatio="xMidYMid meet">
<metadata>
Created by potrace 1.14, written by Peter Selinger 2001-2017
</metadata>
<g transform="translate(0.000000,500.000000) scale(0.100000,-0.100000)"
fill="#000000" stroke="none">
<path d="M2240 4839 c-578 -66 -1056 -359 -1388 -851 -47 -70 -172 -281 -172
-291 0 -3 70 -5 157 -5 171 -1 190 4 251 62 19 17 54 63 79 101 276 425 689
704 1183 800 131 26 410 31 550 11 338 -50 592 -160 909 -395 l86 -63 -100
102 c-188 191 -450 357 -700 443 -117 40 -256 73 -375 87 -99 12 -372 11 -480
-1z"/>
<path d="M2480 4563 c-163 -17 -386 -81 -520 -148 -74 -37 -254 -155 -247
-161 2 -3 37 11 76 31 330 166 768 190 1143 65 116 -38 287 -119 338 -159 14
-11 71 -54 128 -96 110 -83 198 -172 289 -292 35 -48 68 -80 89 -89 24 -10 79
-14 194 -14 l160 0 -59 91 c-108 169 -202 272 -401 443 -118 102 -390 230
-605 286 -159 41 -422 60 -585 43z"/>
<path d="M2966 3596 c-80 -30 -114 -77 -256 -351 -57 -110 -130 -249 -162
-310 -32 -60 -68 -129 -80 -152 -23 -46 -38 -55 -38 -25 0 40 -132 481 -164
547 -42 89 -131 182 -206 217 -112 52 -124 53 -714 53 l-548 0 -40 -45 c-48
-54 -228 -286 -228 -294 0 -3 244 -6 543 -6 588 0 695 -6 766 -42 39 -19 51
-34 78 -88 18 -36 44 -105 59 -155 89 -306 124 -429 124 -438 0 -26 76 -216
98 -245 62 -82 179 -106 278 -57 62 30 96 69 175 198 82 133 393 677 397 693
2 8 7 14 10 14 4 -1 34 -51 67 -112 33 -61 65 -116 70 -122 6 -6 22 -31 36
-56 142 -254 307 -531 333 -558 58 -61 93 -77 176 -77 64 0 82 4 122 28 67 39
91 86 163 325 35 114 100 326 145 472 45 146 99 328 121 404 23 76 43 145 46
152 8 21 -364 20 -393 -1 -28 -19 -37 -45 -73 -195 -30 -125 -157 -612 -167
-639 -7 -21 -23 7 -225 399 -98 192 -193 364 -214 388 -20 23 -54 51 -76 62
-52 27 -171 35 -223 16z"/>
<path d="M546 3048 c-14 -19 -16 -73 -16 -387 l0 -364 183 8 c100 4 186 11
191 15 4 5 8 39 8 76 0 38 6 83 13 101 26 61 36 62 457 56 341 -6 384 -4 443
12 36 9 65 18 65 20 0 1 -18 71 -39 155 l-39 153 -456 -2 -456 -2 0 75 c0 107
2 106 -185 106 -148 0 -154 -1 -169 -22z"/>
<path d="M4297 3035 c-3 -11 -49 -173 -101 -360 -110 -398 -125 -439 -176
-504 -31 -40 -57 -58 -125 -91 -107 -50 -154 -97 -239 -239 -36 -58 -84 -128
-107 -155 -41 -46 -42 -49 -24 -62 71 -52 207 -71 280 -40 55 23 87 56 155
156 169 251 277 492 332 741 15 70 21 143 25 289 4 188 -5 310 -20 265z"/>
<path d="M788 2063 c-16 -2 -28 -10 -28 -16 0 -23 89 -169 145 -238 68 -82
150 -160 240 -226 37 -26 79 -58 93 -71 34 -28 249 -133 363 -178 236 -91 428
-128 674 -127 196 0 287 14 435 69 62 23 220 115 220 128 0 2 -28 -4 -62 -15
-158 -48 -274 -63 -483 -64 -220 0 -293 11 -460 67 -232 79 -380 181 -640 442
-94 95 -169 161 -201 178 -86 46 -199 66 -296 51z"/>
<path d="M40 681 l0 -41 153 0 c122 0 157 -3 175 -16 27 -18 28 -36 4 -57 -16
-14 -44 -17 -176 -17 l-157 0 3 -42 3 -43 115 -3 c63 -2 144 0 180 3 55 6 69
12 97 40 29 29 33 39 33 89 0 47 -4 61 -29 88 l-29 33 -186 3 -186 3 0 -40z"/>
<path d="M615 687 c-40 -40 -49 -86 -43 -221 7 -157 38 -180 233 -174 183 5
195 19 195 216 0 140 -14 183 -66 202 -14 6 -84 10 -156 10 l-130 0 -33 -33z
m271 -55 c24 -16 34 -54 34 -129 0 -116 -7 -123 -127 -123 -130 0 -133 3 -133
128 0 128 4 132 124 132 50 0 96 -4 102 -8z"/>
<path d="M1060 713 c0 -4 27 -102 61 -216 l62 -208 45 3 44 3 18 60 c10 33 28
93 40 134 12 40 25 70 29 65 4 -5 15 -34 23 -64 9 -30 26 -88 38 -127 l21 -73
44 0 44 0 27 88 c14 48 39 132 55 187 17 55 34 113 39 128 l9 28 -46 -3 -47
-3 -36 -127 c-20 -70 -39 -130 -42 -134 -4 -3 -14 21 -23 53 -9 32 -27 92 -39
133 l-22 75 -46 3 -46 3 -25 -83 c-14 -46 -31 -103 -38 -128 -7 -25 -15 -48
-19 -53 -3 -4 -24 52 -46 125 l-39 133 -43 3 c-23 2 -42 0 -42 -5z"/>
<path d="M1710 680 l0 -40 220 0 220 0 0 40 0 40 -220 0 -220 0 0 -40z"/>
<path d="M2240 680 l0 -40 156 0 c88 0 164 -4 175 -10 11 -6 19 -21 19 -35 0
-14 -8 -29 -19 -35 -11 -6 -87 -10 -176 -10 l-156 0 3 -42 3 -43 70 -5 71 -5
94 -82 95 -83 65 0 c75 0 79 -8 -48 98 -40 34 -73 65 -75 69 -1 4 16 9 38 11
49 5 91 26 105 53 17 31 14 124 -4 152 -28 41 -56 47 -241 47 l-175 0 0 -40z"/>
<path d="M2892 703 c3 -10 31 -107 63 -216 l59 -198 45 3 45 3 40 133 c21 73
42 129 46 125 4 -4 25 -66 45 -136 l38 -128 45 3 45 3 62 210 62 210 -39 3
c-22 2 -42 1 -45 -2 -3 -2 -22 -61 -42 -130 -20 -69 -39 -128 -42 -131 -3 -2
-23 55 -45 128 l-39 132 -47 3 -46 3 -20 -68 c-11 -37 -28 -95 -37 -128 -10
-33 -20 -63 -24 -67 -4 -4 -24 52 -46 125 l-40 132 -44 3 c-38 3 -43 1 -39
-15z"/>
<path d="M3660 701 c-5 -11 -48 -108 -94 -215 l-84 -196 47 0 47 0 66 156 c36
85 68 156 72 157 4 1 37 -68 74 -153 l68 -155 46 -3 46 -3 -70 163 c-38 90
-79 187 -90 216 l-21 52 -48 0 c-38 0 -51 -4 -59 -19z"/>
<path d="M4010 505 l0 -215 215 0 215 0 0 45 0 45 -175 0 -175 0 0 170 0 170
-40 0 -40 0 0 -215z"/>
<path d="M4725 618 c-60 -55 -111 -104 -113 -108 -2 -4 50 -55 114 -114 l117
-106 61 0 61 0 -50 48 c-28 26 -80 75 -117 109 l-67 61 97 88 c53 48 106 96
117 106 19 18 18 18 -45 18 l-65 -1 -110 -101z"/>
<path d="M1714 536 c-3 -8 -4 -27 -2 -43 l3 -28 215 0 215 0 0 40 0 40 -213 3
c-177 2 -213 0 -218 -12z"/>
<path d="M1717 374 c-4 -4 -7 -25 -7 -46 l0 -38 221 0 220 0 -3 43 -3 42 -211
3 c-115 1 -213 -1 -217 -4z"/>
</g>
</svg>
